Masquerade (#10.14) aired 2/18/2011

Chloe and Oliver are mistaken for FBI agents investigating Desaad's recent string of murders and the pair are kidnapped by Desaad's minions. Desaad tries to infect Chloe with the darkness. Meanwhile, Lois tells Clark he needs to be more careful with his identity and suggests a disguise

General
Complete name                    :Smallville S10E14 HDTV_JHW.mp4
Format                           : MPEG-4
Format profile                   : Base Media
Codec ID                         : isom
File size                        : 386 MiB
Duration                         : 41mn 31s
Overall bit rate                 : 1 298 Kbps
Encoded date                     : UTC 2011-02-19 02:49:36
Tagged date                      : UTC 2011-02-19 02:49:36

Video
ID                               : 2
Format                           : AVC
Format/Info                      : Advanced Video Codec
Format profile                   : Baseline@L3.0
Format settings, CABAC           : No
Format settings, ReFrames        : 1 frame
Codec ID                         : avc1
Codec ID/Info                    : Advanced Video Coding
Duration                         : 41mn 30s
Bit rate mode                    : Constant
Bit rate                         : 1 200 Kbps
Width                            : 640 pixels
Height                           : 480 pixels
Display aspect ratio             : 4:3
Frame rate mode                  : Constant
Frame rate                       : 23.976 fps
Color space                      : YUV
Chroma subsampling               : 4:2:0
Bit depth                        : 8 bits
Scan type                        : Progressive
Bits/(Pixel*Frame)               : 0.163
Stream size                      : 355 MiB (92%)
Language                         : English

Audio
ID                               : 1
Format                           : AAC
Format/Info                      : Advanced Audio Codec
Format profile                   : LC
Codec ID                         : 40
Duration                         : 41mn 31s
Bit rate mode                    : Constant
Bit rate                         : 96.0 Kbps
Channel(s)                       : 2 channels
Channel positions                : Front: L R
Sampling rate                    : 44.1 KHz
Compression mode                 : Lossy
Stream size                      : 28.5 MiB (7%)
Language                         : English
 
http://img811.imageshack.us/img811/3547/vlcsnap2011021821h52m10.png
 
http://img262.imageshack.us/img262/3600/vlcsnap2011021821h52m34.png
 
http://img156.imageshack.us/img156/6017/vlcsnap2011021821h53m11.png
 
http://img153.imageshack.us/img153/4392/vlcsnap2011021821h53m24.png
 
http://img813.imageshack.us/img813/5531/vlcsnap2011021821h54m16.png
 
http://img138.imageshack.us/img138/8194/vlcsnap2011021821h54m30.png
 
http://img403.imageshack.us/img403/974/vlcsnap2011021821h54m59.png